Coordinates
version=1
nRows=12
nColumns=38
inDegrees=yes

Units are S.I. units (second, meters, Newtons, ...)
Angles are in degrees.

endheader
time	pelvis_tilt	pelvis_list	pelvis_rotation	pelvis_tx	pelvis_ty	pelvis_tz	hip_flexion_r	hip_adduction_r	hip_rotation_r	knee_angle_r	ankle_angle_r	subtalar_angle_r	mtp_angle_r	hip_flexion_l	hip_adduction_l	hip_rotation_l	knee_angle_l	ankle_angle_l	subtalar_angle_l	mtp_angle_l	lumbar_extension	lumbar_bending	lumbar_rotation	arm_flex_r	arm_add_r	arm_rot_r	elbow_flex_r	pro_sup_r	wrist_flex_r	wrist_dev_r	arm_flex_l	arm_add_l	arm_rot_l	elbow_flex_l	pro_sup_l	wrist_flex_l	wrist_dev_l
      5.40000000	     -9.65673408	     -6.23449813	      4.36755932	     -0.09723996	      0.90195472	      2.59735392	     36.94453334	      5.22597965	     -6.95341995	    -20.41214831	     -1.00351509	      0.00000000	      0.00000000	    -14.92649068	     -6.10060653	      4.85607768	    -28.68885628	    -42.66527342	      0.00000000	      0.00000000	     -2.06524235	      7.31744577	    -19.82526103	    -46.73018337	    -23.01181208	     -2.07353949	    117.27131848	     80.70828840	      0.00000000	      0.00000000	     20.92374898	    -15.94101007	     15.53189707	    126.91013200	     91.30505309	      0.00000000	      0.00000000
      5.41000000	     -9.56091479	     -5.64789505	      4.35757276	     -0.09590250	      0.90020128	      2.59705606	     35.84841131	      4.74951113	     -7.24276130	    -16.87797392	     -0.83292235	      0.00000000	      0.00000000	    -14.14367622	     -5.37535874	      5.38466485	    -33.10803988	    -41.60151164	      0.00000000	      0.00000000	     -2.06762030	      6.83731805	    -20.06914034	    -46.05949417	    -22.65741635	     -1.81842318	    116.69685221	     80.88398666	      0.00000000	      0.00000000	     20.76294920	    -15.49745350	     15.92073115	    126.04150862	     92.34434875	      0.00000000	      0.00000000
      5.42000000	     -9.42260562	     -5.10453851	      4.13479608	     -0.09472489	      0.89736563	      2.59707312	     34.98974260	      4.44134166	     -7.55152463	    -14.60287303	     -0.47200464	      0.00000000	      0.00000000	    -13.25054181	     -4.65861888	      5.54521729	    -37.72635203	    -40.59863533	      0.00000000	      0.00000000	     -2.15087404	      6.39628534	    -20.01635042	    -45.08638234	    -22.37847685	     -1.41757059	    116.04795742	     80.96121882	      0.00000000	      0.00000000	     20.44740411	    -15.11068137	     16.27747218	    125.02325100	     93.11415340	      0.00000000	      0.00000000
      5.43000000	     -9.24489368	     -4.65675018	      3.72774669	     -0.09372490	      0.89343807	      2.59747548	     34.29441167	      4.36175369	     -7.67151593	    -13.39461374	     -0.07057629	      0.00000000	      0.00000000	    -12.23503123	     -4.02791790	      5.38951815	    -42.50500232	    -39.67482263	      0.00000000	      0.00000000	     -2.30610215	      6.03027093	    -19.68834606	    -43.84840973	    -22.19304648	     -0.88845458	    115.34260008	     80.95979949	      0.00000000	      0.00000000	     20.00119162	    -14.78780389	     16.60855300	    123.90389002	     93.49005141	      0.00000000	      0.00000000
      5.44000000	     -9.04615636	     -4.32658339	      3.18782377	     -0.09296991	      0.88853256	      2.59823808	     33.65675561	      4.51024730	     -7.44191399	    -12.95495601	      0.16734038	      0.00000000	      0.00000000	    -11.08638383	     -3.54868465	      4.97214807	    -47.39089861	    -38.76950417	      0.00000000	      0.00000000	     -2.48528587	      5.74540505	    -19.13752231	    -42.38546613	    -22.11809964	     -0.24779655	    114.61460684	     80.89519899	      0.00000000	      0.00000000	     19.43283444	    -14.53157936	     16.91002944	    122.72306456	     93.43595765	      0.00000000	      0.00000000
      5.45000000	     -8.85272483	     -4.11042902	      2.56688682	     -0.09237235	      0.88260895	      2.59926823	     33.00461484	      4.84664041	     -6.82821881	    -13.02741915	      0.07406349	      0.00000000	      0.00000000	     -9.80275932	     -3.27422555	      4.33444904	    -52.33600259	    -37.79460732	      0.00000000	      0.00000000	     -2.62885967	      5.54343696	    -18.42943713	    -40.73182860	    -22.16419487	      0.48478237	    113.90856208	     80.76709889	      0.00000000	      0.00000000	     18.73748389	    -14.33701521	     17.18778914	    121.50364176	     93.01862458	      0.00000000	      0.00000000
      5.46000000	     -8.67739012	     -4.01291041	      1.89637745	     -0.09172043	      0.87544078	      2.60049310	     32.36101854	      5.33276701	     -5.94746114	    -13.54831823	     -0.37142057	      0.00000000	      0.00000000	     -8.39060710	     -3.24498392	      3.50354984	    -57.31734924	    -36.67903679	      0.00000000	      0.00000000	     -2.71882618	      5.44854743	    -17.61335721	    -38.90006530	    -22.33173969	      1.29068141	    113.26625501	     80.55470932	      0.00000000	      0.00000000	     17.91807682	    -14.19202765	     17.45824380	    120.24731552	     92.39070779	      0.00000000	      0.00000000
      5.47000000	     -8.49940535	     -4.07421169	      1.17901684	     -0.09099519	      0.86705971	      2.60188300	     31.84795251	      5.97752885	     -5.01720819	    -14.72605692	     -0.96439187	      0.00000000	      0.00000000	     -6.85649874	     -3.50228232	      2.51138607	    -62.34321592	    -35.39099852	      0.00000000	      0.00000000	     -2.82398472	      5.51367735	    -16.69530908	    -36.86506468	    -22.60771383	      2.16320602	    112.71664207	     80.22353715	      0.00000000	      0.00000000	     17.01490045	    -14.08299168	     17.72589557	    118.93539404	     91.74618564	      0.00000000	      0.00000000
      5.48000000	     -8.27110674	     -4.35261889	      0.40202531	     -0.09076393	      0.85786594	      2.60353552	     31.61163308	      6.86150573	     -4.24262888	    -16.97343227	     -1.28699811	      0.00000000	      0.00000000	     -5.20465418	     -4.10785320	      1.42054154	    -67.44455485	    -33.93425183	      0.00000000	      0.00000000	     -3.09686640	      5.80430422	    -15.64280120	    -34.56695774	    -22.96628273	      3.11765088	    112.27761430	     79.74339081	      0.00000000	      0.00000000	     16.11305134	    -13.99791153	     17.96240093	    117.53049025	     91.26730157	      0.00000000	      0.00000000
      5.49000000	     -7.94069670	     -4.90003324	     -0.43470679	     -0.09183996	      0.84851784	      2.60549187	     31.73435420	      8.09936637	     -3.70101944	    -20.65496638	     -0.84751894	      0.00000000	      0.00000000	     -3.44829472	     -5.13439210	      0.32817979	    -72.66000856	    -32.32702143	      0.00000000	      0.00000000	     -3.69736744	      6.36221619	    -14.41379844	    -31.93642824	    -23.37544983	      4.19179396	    111.96720273	     79.11136146	      0.00000000	      0.00000000	     15.30712236	    -13.92860044	     18.10683839	    115.98666125	     91.08146811	      0.00000000	      0.00000000
      5.50000000	     -7.46311275	     -5.74288211	     -1.30635675	     -0.09407694	      0.83937075	      2.60774863	     32.20410430	      9.75113716	     -3.30154028	    -25.74294707	      0.69202770	      0.00000000	      0.00000000	     -1.60180989	     -6.61915625	     -0.66114132	    -78.01156699	    -30.57981741	      0.00000000	      0.00000000	     -4.67573768	      7.17111093	    -12.97870819	    -28.91924730	    -23.80677791	      5.43106872	    111.81223705	     78.36940915	      0.00000000	      0.00000000	     14.63566210	    -13.87209555	     18.09069191	    114.27431221	     91.23706253	      0.00000000	      0.00000000
      5.51000000	     -6.85630286	     -6.83930775	     -2.18875669	     -0.09690091	      0.83023099	      2.61052360	     32.88846203	     11.77133335	     -2.86008371	    -31.63787973	      3.33358419	      0.00000000	      0.00000000	      0.38138981	     -8.50699499	     -1.47379533	    -83.45404609	    -28.68557184	      0.00000000	      0.00000000	     -5.90531150	      8.16230786	    -11.33296643	    -25.48473428	    -24.24130904	      6.86276280	    111.83933290	     77.60697362	      0.00000000	      0.00000000	     14.02616302	    -13.82386415	     17.87811154	    112.40229958	     91.69990478	      0.00000000	      0.00000000
